<svg xmlns="http://www.w3.org/2000/svg" xmlns:xlink="http://www.w3.org/1999/xlink" width="200" zoomAndPan="magnify" viewBox="0 0 150 123.750003" height="165" preserveAspectRatio="xMidYMid meet" version="1.2"><defs><clipPath id="58c373342c"><path d="M 16.734375 6.570312 L 137.652344 6.570312 L 137.652344 111.152344 L 16.734375 111.152344 Z M 16.734375 6.570312 "/></clipPath><clipPath id="6b63899858"><path d="M 33.949219 6.570312 L 120.285156 6.570312 C 129.792969 6.570312 137.5 14.28125 137.5 23.789062 L 137.5 93.933594 C 137.5 103.441406 129.792969 111.152344 120.285156 111.152344 L 33.949219 111.152344 C 24.441406 111.152344 16.734375 103.441406 16.734375 93.933594 L 16.734375 23.789062 C 16.734375 14.28125 24.441406 6.570312 33.949219 6.570312 Z M 33.949219 6.570312 "/></clipPath></defs><g id="dd4f40fd2f"><g clip-rule="nonzero" clip-path="url(#58c373342c)"><g clip-rule="nonzero" clip-path="url(#6b63899858)"><path style=" stroke:none;fill-rule:nonzero;fill:#011637;fill-opacity:1;" d="M 16.734375 6.570312 L 137.652344 6.570312 L 137.652344 111.152344 L 16.734375 111.152344 Z M 16.734375 6.570312 "/></g></g><g style="fill:#d3b973;fill-opacity:1;"><g transform="translate(9.622956, 81.611844)"><path style="stroke:none" d="M 54.5 -40.15625 L 6.640625 -40.15625 L 6.640625 3.078125 L 61.921875 3.078125 L 61.921875 -75.015625 L 54.5 -75.015625 Z M 54.5 -4.140625 L 14.0625 -4.140625 L 14.0625 -32.9375 L 54.5 -32.9375 Z M 54.5 -4.140625 "/></g></g><g style="fill:#d3b973;fill-opacity:1;"><g transform="translate(75.783976, 81.611844)"><path style="stroke:none" d="M 6.640625 -40.15625 L 61.828125 -40.15625 L 61.828125 3.171875 L 13.96875 3.171875 L 13.96875 29.5625 L 6.640625 29.5625 Z M 13.96875 -3.953125 L 54.5 -3.953125 L 54.5 -33.03125 L 13.96875 -33.03125 Z M 13.96875 -3.953125 "/></g></g></g></svg>